<svg xmlns="http://www.w3.org/2000/svg" width="557.16742" height="445.33808" viewBox="0 0 557.16742 445.33808" xmlns:xlink="http://www.w3.org/1999/xlink"><path d="m78.87525,118.75682H24.04733c-13.25985,0-24.04733-11.09866-24.04733-24.741v-51.46129c0-13.64234,10.78748-24.741,24.04733-24.741h54.82792c13.25985,0,24.04733,11.09866,24.04733,24.741v51.46129c0,13.64234-10.78748,24.741-24.04733,24.741Z" fill="#2f2e41" stroke-width="0"/><path d="m230.29019,118.75682h-54.82792c-13.25985,0-24.04733-11.09866-24.04733-24.741v-51.46129c0-13.64234,10.78748-24.741,24.04733-24.741h54.82792c13.25985,0,24.04733,11.09866,24.04733,24.741v51.46129c0,13.64234-10.78748,24.741-24.04733,24.741Z" fill="#2f2e41" stroke-width="0"/><path d="m381.70514,118.75682h-54.82792c-13.25985,0-24.04733-11.09866-24.04733-24.741v-51.46129c0-13.64234,10.78748-24.741,24.04733-24.741h54.82792c13.25985,0,24.04733,11.09866,24.04733,24.741v51.46129c0,13.64234-10.78748,24.741-24.04733,24.741Z" fill="#ccc" stroke-width="0"/><path d="m533.12009,118.75682h-54.82792c-13.25985,0-24.04733-11.09866-24.04733-24.741v-51.46129c0-13.64234,10.78748-24.741,24.04733-24.741h54.82792c13.25985,0,24.04733,11.09866,24.04733,24.741v51.46129c0,13.64234-10.78748,24.741-24.04733,24.741Z" fill="#ccc" stroke-width="0"/><circle cx="250.37897" cy="19.7928" r="19.7928" fill="#1a13a0" stroke-width="0"/><circle cx="94.01582" cy="19.7928" r="19.7928" fill="#1a13a0" stroke-width="0"/><path d="m78.87525,281.05781H24.04733c-13.25985,0-24.04733-11.09866-24.04733-24.741v-51.46129c0-13.64234,10.78748-24.741,24.04733-24.741h54.82792c13.25985,0,24.04733,11.09866,24.04733,24.741v51.46129c0,13.64234-10.78748,24.741-24.04733,24.741Z" fill="#ccc" stroke-width="0"/><path d="m230.29019,281.05781h-54.82792c-13.25985,0-24.04733-11.09866-24.04733-24.741v-51.46129c0-13.64234,10.78748-24.741,24.04733-24.741h54.82792c13.25985,0,24.04733,11.09866,24.04733,24.741v51.46129c0,13.64234-10.78748,24.741-24.04733,24.741Z" fill="#2f2e41" stroke-width="0"/><path d="m381.70514,281.05781h-54.82792c-13.25985,0-24.04733-11.09866-24.04733-24.741v-51.46129c0-13.64234,10.78748-24.741,24.04733-24.741h54.82792c13.25985,0,24.04733,11.09866,24.04733,24.741v51.46129c0,13.64234-10.78748,24.741-24.04733,24.741Z" fill="#ccc" stroke-width="0"/><path d="m533.12009,281.05781h-54.82792c-13.25985,0-24.04733-11.09866-24.04733-24.741v-51.46129c0-13.64234,10.78748-24.741,24.04733-24.741h54.82792c13.25985,0,24.04733,11.09866,24.04733,24.741v51.46129c0,13.64234-10.78748,24.741-24.04733,24.741Z" fill="#ccc" stroke-width="0"/><circle cx="250.37897" cy="182.09379" r="19.7928" fill="#ff6363" stroke-width="0"/><path d="m78.87525,445.33808H24.04733c-13.25985,0-24.04733-11.09866-24.04733-24.741v-51.46129c0-13.64234,10.78748-24.741,24.04733-24.741h54.82792c13.25985,0,24.04733,11.09866,24.04733,24.741v51.46129c0,13.64234-10.78748,24.741-24.04733,24.741Z" fill="#2f2e41" stroke-width="0"/><path d="m230.29019,445.33808h-54.82792c-13.25985,0-24.04733-11.09866-24.04733-24.741v-51.46129c0-13.64234,10.78748-24.741,24.04733-24.741h54.82792c13.25985,0,24.04733,11.09866,24.04733,24.741v51.46129c0,13.64234-10.78748,24.741-24.04733,24.741Z" fill="#ccc" stroke-width="0"/><path d="m381.70514,445.33808h-54.82792c-13.25985,0-24.04733-11.09866-24.04733-24.741v-51.46129c0-13.64234,10.78748-24.741,24.04733-24.741h54.82792c13.25985,0,24.04733,11.09866,24.04733,24.741v51.46129c0,13.64234-10.78748,24.741-24.04733,24.741Z" fill="#ccc" stroke-width="0"/><path d="m533.12009,445.33808h-54.82792c-13.25985,0-24.04733-11.09866-24.04733-24.741v-51.46129c0-13.64234,10.78748-24.741,24.04733-24.741h54.82792c13.25985,0,24.04733,11.09866,24.04733,24.741v51.46129c0,13.64234-10.78748,24.741-24.04733,24.741Z" fill="#ccc" stroke-width="0"/><circle cx="94.01582" cy="346.37406" r="19.7928" fill="#1a13a0" stroke-width="0"/></svg>